# File created by Blade
# Date/Time:  Mon Nov 18 18:33:23 2013
# Frame Rate: 100.000 fps
#------------------------------------------------------
:FULLY-SPECIFIED
:DEGREES
207
root 53.139341 -3.450566 52.252290 -3.359237 1.240794 -126.163249
Spine 13.111595 -0.482779 -0.657707
Spine1 3.482403 1.598229 -1.566986
Spine2 0.755950 -1.517226 -1.367297
NeckDummy -0.000756 -0.138091 -0.020738 -1.420109 1.159657 -0.500227
Neck 14.925781 0.139036 27.744645
Head -0.297070 0.359004 0.196818 -34.334243 -4.061093 -0.630267
LeftShoulderDummy -0.062956 -0.129186 0.034869 -1.399121 1.039363 -0.283502
LeftShoulder 7.175626 -3.523322 14.494784
LeftArm 22.076457 50.189714 30.481834
LeftForeArm 89.946975
LeftForeArmRoll -37.201366
LeftHand -9.561737 5.650790 -4.858763
LeftHandThumb1 17.029850 13.061683
LeftHandIndex1 14.645870 43.430043
LeftHandPinky1 13.777410 47.895698
RightShoulderDummy -0.036117 -0.114814 0.059322 -1.438314 -1.162975 0.505739
RightShoulder 5.614646 4.828839 16.996468
RightArm -39.695190 68.769309 -2.221607
RightForeArm 113.133083
RightForeArmRoll 4.711601
RightHand -17.751936 -15.862950 12.068024
RightHandThumb1 -0.435595 13.367665
RightHandIndex1 13.378058 60.864278
RightHandPinky1 18.441508 69.042299
LeftUpLeg 5.751082 21.316863 -33.983790
LeftLeg 58.033972
LeftFoot 0.603427 -1.051792 -0.882187 -11.871355 10.338196 -14.174465
LeftToeBase -1.374814
RightUpLeg 10.809526 13.160837 -25.921590
RightLeg 64.907416
RightFoot -0.513627 0.446065 0.285070 -0.943855 6.382671 -32.804918
RightToeBase -0.945003
208
root 53.117709 -3.468190 52.251637 -3.403317 1.227429 -126.185038
Spine 13.114947 -0.492528 -0.637038
Spine1 3.469443 1.599024 -1.523396
Spine2 0.749786 -1.497086 -1.359504
NeckDummy -0.001013 -0.135218 -0.020690 -1.432160 1.149724 -0.491046
Neck 14.919332 0.159352 27.708944
Head -0.299712 0.358262 0.196137 -34.327731 -4.077228 -0.656251
LeftShoulderDummy -0.062656 -0.125957 0.035911 -1.410734 1.028281 -0.274446
LeftShoulder 7.213475 -3.519823 14.483378
LeftArm 21.971683 50.264752 30.400456
LeftForeArm 89.968972
LeftForeArmRoll -37.240732
LeftHand -9.589864 5.665761 -4.677797
LeftHandThumb1 16.976603 12.906304
LeftHandIndex1 14.416955 43.155794
LeftHandPinky1 13.775103 47.912992
RightShoulderDummy -0.036243 -0.111995 0.059305 -1.451239 -1.151794 0.495906
RightShoulder 5.630903 4.850029 17.060704
RightArm -39.519887 68.827049 -2.104425
RightForeArm 113.146469
RightForeArmRoll 4.518409
RightHand -17.823688 -16.055772 11.992098
RightHandThumb1 -0.623714 13.604441
RightHandIndex1 13.722437 61.098593
RightHandPinky1 18.761429 69.903030
LeftUpLeg 5.641091 21.283004 -33.998089
LeftLeg 58.181302
LeftFoot 0.598504 -1.050651 -0.880194 -11.792195 10.448789 -14.201112
LeftToeBase -1.489424
RightUpLeg 10.799675 13.202029 -25.929274
RightLeg 65.055330
RightFoot -0.512860 0.449239 0.282383 -1.001460 6.342397 -32.805687
RightToeBase -0.994590
209
root 53.094862 -3.486720 52.250325 -3.446986 1.217427 -126.211903
Spine 13.125553 -0.518788 -0.600625
Spine1 3.465591 1.588744 -1.445935
Spine2 0.710712 -1.423471 -1.424401
NeckDummy -0.000851 -0.134910 -0.019486 -1.424445 1.190363 -0.478837
Neck 14.911707 0.143254 27.668081
Head -0.300356 0.358202 0.195355 -34.307575 -4.089061 -0.656483
LeftShoulderDummy -0.062611 -0.125663 0.035942 -1.403003 1.068506 -0.260055
LeftShoulder 7.257335 -3.558857 14.495989
LeftArm 21.849814 50.304813 30.368641
LeftForeArm 90.026664
LeftForeArmRoll -37.224865
LeftHand -9.604571 5.590696 -4.717593
LeftHandThumb1 17.088563 12.953001
LeftHandIndex1 14.423691 43.427054
LeftHandPinky1 13.765241 47.958748
RightShoulderDummy -0.036056 -0.111836 0.060801 -1.444064 -1.191325 0.481882
RightShoulder 5.636257 4.901856 17.132298
RightArm -39.402477 68.875670 -2.102395
RightForeArm 113.229550
RightForeArmRoll 4.446575
RightHand -17.732231 -15.869010 12.025516
RightHandThumb1 -0.409316 13.430980
RightHandIndex1 13.376137 60.939468
RightHandPinky1 18.634850 69.655211
LeftUpLeg 5.550543 21.247557 -34.006218
LeftLeg 58.356899
LeftFoot 0.602758 -1.051086 -0.874025 -11.815153 10.548998 -14.299000
LeftToeBase -1.465919
RightUpLeg 10.787460 13.231850 -25.935850
RightLeg 65.178153
RightFoot -0.511713 0.450368 0.279097 -0.995073 6.379636 -32.833864
RightToeBase -1.091823
210
root 53.073409 -3.504770 52.245673 -3.494210 1.184454 -126.239041
Spine 13.116472 -0.509093 -0.595883
Spine1 3.461063 1.586924 -1.431215
Spine2 0.715274 -1.409187 -1.476371
NeckDummy -0.000498 -0.134234 -0.019804 -1.422382 1.230294 -0.484412
Neck 14.893892 0.157423 27.705536
Head -0.303671 0.356861 0.194418 -34.287142 -4.140110 -0.670306
LeftShoulderDummy -0.061104 -0.124713 0.035226 -1.399897 1.108575 -0.270908
LeftShoulder 7.365825 -3.583290 14.536703
LeftArm 21.845472 50.262887 30.357456
LeftForeArm 90.074241
LeftForeArmRoll -37.266542
LeftHand -9.562393 5.575961 -4.689142
LeftHandThumb1 17.093187 12.965447
LeftHandIndex1 14.436258 43.307176
LeftHandPinky1 13.807637 47.993718
RightShoulderDummy -0.035955 -0.111014 0.061069 -1.442307 -1.231094 0.487642
RightShoulder 5.648708 4.869852 17.160359
RightArm -39.219603 68.888629 -1.972932
RightForeArm 113.261350
RightForeArmRoll 4.323619
RightHand -17.829284 -15.639160 11.794166
RightHandThumb1 -0.866055 13.362273
RightHandIndex1 13.699695 60.303215
RightHandPinky1 18.943327 69.270510
LeftUpLeg 5.474387 21.248480 -33.986585
LeftLeg 58.442012
LeftFoot 0.606208 -1.045177 -0.885271 -11.800537 10.626601 -14.345124
LeftToeBase -1.407750
RightUpLeg 10.802930 13.239571 -25.913965
RightLeg 65.293712
RightFoot -0.512637 0.450947 0.279235 -0.926996 6.294846 -32.889189
RightToeBase -0.926987
211
root 53.053560 -3.523063 52.238243 -3.528160 1.124102 -126.239516
Spine 13.102901 -0.483688 -0.601757
Spine1 3.451269 1.598163 -1.432297
Spine2 0.726093 -1.410158 -1.427943
NeckDummy -0.000352 -0.135198 -0.020033 -1.436181 1.196626 -0.486079
Neck 14.853698 0.164561 27.745830
Head -0.302714 0.355341 0.194081 -34.258048 -4.099079 -0.658108
LeftShoulderDummy -0.062006 -0.125775 0.036174 -1.413873 1.074286 -0.268494
LeftShoulder 7.437332 -3.577641 14.575367
LeftArm 21.750988 50.269231 30.302474
LeftForeArm 90.155588
LeftForeArmRoll -37.240805
LeftHand -9.560306 5.685198 -4.709523
LeftHandThumb1 17.039108 12.773213
LeftHandIndex1 14.312378 43.005796
LeftHandPinky1 13.167252 47.828084
RightShoulderDummy -0.035886 -0.111883 0.060889 -1.455769 -1.197774 0.489303
RightShoulder 5.697689 4.864583 17.193352
RightArm -39.062588 68.964340 -1.869454
RightForeArm 113.269106
RightForeArmRoll 4.206164
RightHand -17.764240 -15.873909 11.848532
RightHandThumb1 -0.767696 13.485973
RightHandIndex1 13.689589 60.848271
RightHandPinky1 18.824859 69.175494
LeftUpLeg 5.389251 21.290779 -34.022144
LeftLeg 58.585337
LeftFoot 0.609783 -1.046384 -0.888511 -11.820040 10.653434 -14.404526
LeftToeBase -1.413705
RightUpLeg 10.813159 13.180816 -25.896186
RightLeg 65.387174
RightFoot -0.518328 0.451767 0.282443 -0.806634 6.325909 -32.898116
RightToeBase -1.076312
212
root 53.034524 -3.542050 52.235071 -3.567316 1.101595 -126.261837
Spine 13.092301 -0.506555 -0.578554
Spine1 3.460110 1.587312 -1.393527
Spine2 0.724884 -1.341805 -1.465699
NeckDummy -0.000410 -0.136774 -0.020028 -1.421527 1.219205 -0.472816
Neck 14.836557 0.133270 27.722453
Head -0.303094 0.355667 0.192748 -34.224916 -4.121912 -0.660244
LeftShoulderDummy -0.061656 -0.127309 0.035044 -1.399355 1.096974 -0.254904
LeftShoulder 7.354455 -3.573958 14.534349
LeftArm 21.606418 50.411782 30.125481
LeftForeArm 90.210617
LeftForeArmRoll -37.247521
LeftHand -9.595255 5.612821 -4.696387
LeftHandThumb1 17.087325 12.843119
LeftHandIndex1 14.410265 43.321382
LeftHandPinky1 13.664576 47.941991
RightShoulderDummy -0.035800 -0.113708 0.060486 -1.441747 -1.219147 0.474799
RightShoulder 5.622508 4.899645 17.239006
RightArm -39.135737 69.024152 -2.000695
RightForeArm 113.277855
RightForeArmRoll 4.105191
RightHand -17.802518 -15.905127 11.877926
RightHandThumb1 -0.739074 13.329418
RightHandIndex1 13.670338 60.566258
RightHandPinky1 18.830100 69.267037
LeftUpLeg 5.290874 21.284736 -34.033778
LeftLeg 58.711887
LeftFoot 0.607923 -1.043985 -0.892562 -11.859005 10.737760 -14.442135
LeftToeBase -1.381432
RightUpLeg 10.776125 13.160379 -25.889744
RightLeg 65.500731
RightFoot -0.525217 0.453481 0.282729 -0.820938 6.335586 -32.968529
RightToeBase -1.096583
